<svg width="142" height="67" viewBox="0 0 142 67" fill="none" xmlns="http://www.w3.org/2000/svg">
<path opacity="0.93" d="M0.963379 12.5741H10.0819L23.5855 48.9385L36.9877 12.5741H46.0112V55.5902H39.9596V30.1779C39.9596 29.2977 39.9596 27.8454 40.0293 25.8084C40.099 23.7714 40.0927 21.6023 40.0927 19.2761L26.6842 55.5902H20.3854L6.88188 19.2824V20.6027C6.88188 21.6589 6.88188 23.2621 6.96426 25.4249C7.04664 27.5876 7.0403 29.1971 7.0403 30.1842V55.5902H0.963379V12.5741Z" fill="black"/>
<path opacity="0.93" d="M94.4174 18.6977C97.5267 22.5076 99.0834 27.3822 99.0876 33.3214C99.0876 39.7468 97.307 45.0887 93.7457 49.3471C89.5635 54.3516 83.6006 56.8518 75.8572 56.8476C68.6291 56.8476 62.945 54.6597 58.805 50.2839C55.1171 46.0632 53.2731 40.7296 53.2731 34.2833C53.2731 28.4699 54.8509 23.4884 58.0066 19.3389C62.0537 14.0243 68.0482 11.369 75.9902 11.3732C84.2702 11.3732 90.4126 13.8147 94.4174 18.6977ZM88.7968 46.1093C91.3273 42.3558 92.6407 37.9244 92.5608 33.4094C92.5608 28.3504 91.116 24.2764 88.2265 21.1873C85.3369 18.0983 81.3849 16.5559 76.3704 16.5601C71.5123 16.5601 67.5455 18.0878 64.4701 21.1433C61.3946 24.1988 59.8696 28.7067 59.8949 34.6668C59.8949 39.4324 61.2109 43.4519 63.8427 46.7254C66.4746 49.9989 70.7455 51.6356 76.6556 51.6356C82.2488 51.6356 86.2959 49.7935 88.7968 46.1093Z" fill="black"/>
<path opacity="0.93" d="M107.275 12.5741H141.544V17.8489H113.485V30.8883H139.427V35.8677H113.485V50.4599H142V55.5902H107.275V12.5741Z" fill="black"/>
<path d="M77.1942 0.314392V31.4919" stroke="black"/>
<path d="M77.1942 36.6472V66.1461" stroke="black"/>
<path d="M77.1435 66.6429C58.0446 66.6429 42.5069 51.6797 42.5069 33.3214C42.5069 14.9632 58.0446 0 77.1435 0C96.2424 0 111.774 14.9444 111.774 33.3214C111.774 51.6985 96.2361 66.6429 77.1435 66.6429ZM77.1435 0.628706C58.3931 0.628706 43.1406 15.2901 43.1406 33.3214C43.1406 51.3527 58.3931 66.0142 77.1435 66.0142C95.8939 66.0142 111.14 51.3527 111.14 33.3214C111.14 15.2901 95.8875 0.628706 77.1435 0.628706Z" fill="black"/>
<path d="M70.3315 31.5169H84.0505" stroke="black"/>
<path d="M73.4175 36.6096H80.9899" stroke="black"/>
<path d="M84.5131 27.5624V29.7629" stroke="black"/>
<path d="M85.6284 28.6628H83.4042" stroke="black"/>
<path d="M84.4117 38.2568H82.1875" stroke="black"/>
</svg>
